<svg width="192" height="192" viewBox="0 0 192 192" fill="none" xmlns="http://www.w3.org/2000/svg">
  <rect width="192" height="192" rx="40" fill="#1976D2"/>
  <path d="M96 40C66.11 40 42 64.11 42 94C42 107.59 47.39 120.03 56 128.78V152C56 157.52 60.48 162 66 162H126C131.52 162 136 157.52 136 152V128.78C144.61 120.03 150 107.59 150 94C150 64.11 125.89 40 96 40ZM96 56C116.1 56 132 71.9 132 92C132 102.86 126.81 112.43 118.5 118.5H73.5C65.19 112.43 60 102.86 60 92C60 71.9 75.9 56 96 56ZM96 138C85.5 138 76.5 147 76.5 157.5H115.5C115.5 147 106.5 138 96 138Z" fill="white"/>
</svg>
